{
  "accessors": [
    {
      "bufferView": 2,
      "componentType": 5126,
      "count": 1698,
      "max": [
        0.28619998693466187,
        1.0954999923706055,
        0.8531000018119812
      ],
      "min": [
        -0.03799999877810478,
        -0.5235999822616577,
        -0.8723000288009644
      ],
      "type": "VEC3"
    },
    {
      "bufferView": 2,
      "byteOffset": 20376,
      "componentType": 5126,
      "count": 1698,
      "max": [
        0.9999710321426392,
        0.9999215602874756,
        0.9999500513076782
      ],
      "min": [
        -0.9996002316474915,
        -0.9967957139015198,
        -0.9999074935913086
      ],
      "type": "VEC3"
    },
    {
      "bufferView": 1,
      "componentType": 5126,
      "count": 1698,
      "max": [
        0.9959999918937683,
        0.9959999918937683
      ],
      "min": [
        0.004000000189989805,
        0.004000000189989805
      ],
      "type": "VEC2"
    },
    {
      "bufferView": 0,
      "componentType": 5125,
      "count": 6978,
      "type": "SCALAR"
    },
    {
      "bufferView": 2,
      "byteOffset": 40752,
      "componentType": 5126,
      "count": 286,
      "max": [
        0.12919999659061432,
        -0.5845000147819519,
        0.045099999755620956
      ],
      "min": [
        0.07559999823570251,
        -0.6807000041007996,
        -0.04280000180006027
      ],
      "type": "VEC3"
    },
    {
      "bufferView": 2,
      "byteOffset": 44184,
      "componentType": 5126,
      "count": 286,
      "max": [
        0.9984800219535828,
        0.9859181642532349,
        0.996182382106781
      ],
      "min": [
        -0.8858201503753662,
        -0.997305691242218,
        -0.9969411492347717
      ],
      "type": "VEC3"
    },
    {
      "bufferView": 1,
      "byteOffset": 13584,
      "componentType": 5126,
      "count": 286,
      "max": [
        1.0019999742507935,
        0.9890000224113464
      ],
      "min": [
        0.029999999329447746,
        -0.061000000685453415
      ],
      "type": "VEC2"
    },
    {
      "bufferView": 0,
      "byteOffset": 27912,
      "componentType": 5125,
      "count": 1374,
      "type": "SCALAR"
    },
    {
      "bufferView": 2,
      "byteOffset": 47616,
      "componentType": 5126,
      "count": 907,
      "max": [
        0.15379999577999115,
        -0.5859000086784363,
        0.09719999879598618
      ],
      "min": [
        -0.06080000102519989,
        -0.7919999957084656,
        -0.09099999815225601
      ],
      "type": "VEC3"
    },
    {
      "bufferView": 2,
      "byteOffset": 58500,
      "componentType": 5126,
      "count": 907,
      "max": [
        0.9999510049819946,
        0.9964500069618225,
        0.9991409182548523
      ],
      "min": [
        -0.9994543194770813,
        -0.9960190057754517,
        -0.9991409182548523
      ],
      "type": "VEC3"
    },
    {
      "bufferView": 1,
      "byteOffset": 15872,
      "componentType": 5126,
      "count": 907,
      "max": [
        1.9809999465942383,
        1.99399995803833
      ],
      "min": [
        -0.9900000095367432,
        -0.9940000176429749
      ],
      "type": "VEC2"
    },
    {
      "bufferView": 0,
      "byteOffset": 33408,
      "componentType": 5125,
      "count": 3639,
      "type": "SCALAR"
    },
    {
      "bufferView": 2,
      "byteOffset": 69384,
      "componentType": 5126,
      "count": 1851,
      "max": [
        0.15649999678134918,
        -0.5076000094413757,
        0.08669999986886978
      ],
      "min": [
        -0.05420000106096268,
        -0.7681000232696533,
        -0.08380000293254852
      ],
      "type": "VEC3"
    },
    {
      "bufferView": 2,
      "byteOffset": 91596,
      "componentType": 5126,
      "count": 1851,
      "max": [
        0.9997190833091736,
        0.997881293296814,
        0.9992342591285706
      ],
      "min": [
        -0.9845205545425415,
        -0.9944665431976318,
        -0.9991169571876526
      ],
      "type": "VEC3"
    },
    {
      "bufferView": 1,
      "byteOffset": 23128,
      "componentType": 5126,
      "count": 1851,
      "max": [
        0.9990000128746033,
        0.9179999828338623
      ],
      "min": [
        -0.004000000189989805,
        0.0
      ],
      "type": "VEC2"
    },
    {
      "bufferView": 0,
      "byteOffset": 47964,
      "componentType": 5125,
      "count": 10986,
      "type": "SCALAR"
    },
    {
      "bufferView": 2,
      "byteOffset": 113808,
      "componentType": 5126,
      "count": 1257,
      "max": [
        0.17749999463558197,
        -0.035599999129772186,
        0.17910000681877136
      ],
      "min": [
        -0.12219999730587006,
        -0.5570999979972839,
        -0.16899999976158142
      ],
      "type": "VEC3"
    },
    {
      "bufferView": 2,
      "byteOffset": 128892,
      "componentType": 5126,
      "count": 1257,
      "max": [
        0.9999315738677979,
        0.9959422945976257,
        0.999002993106842
      ],
      "min": [
        -0.9999955892562866,
        -0.999923586845398,
        -0.9994627833366394
      ],
      "type": "VEC3"
    },
    {
      "bufferView": 1,
      "byteOffset": 37936,
      "componentType": 5126,
      "count": 1257,
      "max": [
        0.9919999837875366,
        0.9919999837875366
      ],
      "min": [
        0.009999999776482582,
        0.006000000052154064
      ],
      "type": "VEC2"
    },
    {
      "bufferView": 0,
      "byteOffset": 91908,
      "componentType": 5125,
      "count": 4656,
      "type": "SCALAR"
    },
    {
      "bufferView": 2,
      "byteOffset": 143976,
      "componentType": 5126,
      "count": 1985,
      "max": [
        0.18060000240802765,
        -0.04050000011920929,
        0.6840000152587891
      ],
      "min": [
        -0.07909999787807465,
        -0.6723999977111816,
        -0.678600013256073
      ],
      "type": "VEC3"
    },
    {
      "bufferView": 2,
      "byteOffset": 167796,
      "componentType": 5126,
      "count": 1985,
      "max": [
        0.9999915361404419,
        0.9998675584793091,
        0.9999830722808838
      ],
      "min": [
        -0.9999951124191284,
        -0.9999819993972778,
        -0.999969482421875
      ],
      "type": "VEC3"
    },
    {
      "bufferView": 1,
      "byteOffset": 47992,
      "componentType": 5126,
      "count": 1985,
      "max": [
        0.9950000047683716,
        1.0
      ],
      "min": [
        0.004000000189989805,
        0.004999999888241291
      ],
      "type": "VEC2"
    },
    {
      "bufferView": 0,
      "byteOffset": 110532,
      "componentType": 5125,
      "count": 7503,
      "type": "SCALAR"
    },
    {
      "bufferView": 2,
      "byteOffset": 191616,
      "componentType": 5126,
      "count": 804,
      "max": [
        0.16840000450611115,
        -0.07259999960660934,
        0.5042999982833862
      ],
      "min": [
        -0.09399999678134918,
        -0.5468000173568726,
        -0.4991999864578247
      ],
      "type": "VEC3"
    },
    {
      "bufferView": 2,
      "byteOffset": 201264,
      "componentType": 5126,
      "count": 804,
      "max": [
        0.9999915361404419,
        0.9988232254981995,
        0.9878968000411987
      ],
      "min": [
        -0.9997040629386902,
        -0.9999390840530396,
        -0.9899880886077881
      ],
      "type": "VEC3"
    },
    {
      "bufferView": 1,
      "byteOffset": 63872,
      "componentType": 5126,
      "count": 804,
      "max": [
        0.9490000009536743,
        0.9959999918937683
      ],
      "min": [
        0.008999999612569809,
        0.0010000000474974513
      ],
      "type": "VEC2"
    },
    {
      "bufferView": 0,
      "byteOffset": 140544,
      "componentType": 5125,
      "count": 3996,
      "type": "SCALAR"
    },
    {
      "bufferView": 2,
      "byteOffset": 210912,
      "componentType": 5126,
      "count": 362,
      "max": [
        0.17270000278949738,
        1.0569000244140625,
        0.20669999718666077
      ],
      "min": [
        -0.09309999644756317,
        -0.1054999977350235,
        -0.19280000030994415
      ],
      "type": "VEC3"
    },
    {
      "bufferView": 2,
      "byteOffset": 215256,
      "componentType": 5126,
      "count": 362,
      "max": [
        0.9998615980148315,
        0.9969536066055298,
        0.9990329742431641
      ],
      "min": [
        -0.9998894929885864,
        -0.9995457530021667,
        -0.9996391534805298
      ],
      "type": "VEC3"
    },
    {
      "bufferView": 1,
      "byteOffset": 70304,
      "componentType": 5126,
      "count": 362,
      "max": [
        0.9929999709129333,
        1.0010000467300415
      ],
      "min": [
        0.007000000216066837,
        0.004999999888241291
      ],
      "type": "VEC2"
    },
    {
      "bufferView": 0,
      "byteOffset": 156528,
      "componentType": 5125,
      "count": 1827,
      "type": "SCALAR"
    }
  ],
  "asset": {
    "extras": {
      "author": "Tremolo_1404_ (https://sketchfab.com/Tremolo_1404_)",
      "license": "CC-BY-4.0 (http://creativecommons.org/licenses/by/4.0/)",
      "source": "https://sketchfab.com/3d-models/resident-evil-darkside-chronicles-leon-3d-model-2300c58d2a0e4b1f98e6a440b8ddcc3f",
      "title": "RESIDENT EVIL DARKSIDE CHRONICLES LEON 3D MODEL"
    },
    "generator": "Sketchfab-13.70.0",
    "version": "2.0"
  },
  "bufferViews": [
    {
      "buffer": 0,
      "byteLength": 163836,
      "name": "floatBufferViews",
      "target": 34963
    },
    {
      "buffer": 0,
      "byteLength": 73200,
      "byteOffset": 163836,
      "byteStride": 8,
      "name": "floatBufferViews",
      "target": 34962
    },
    {
      "buffer": 0,
      "byteLength": 219600,
      "byteOffset": 237036,
      "byteStride": 12,
      "name": "floatBufferViews",
      "target": 34962
    }
  ],
  "buffers": [
    {
      "byteLength": 456636,
      "uri": "scene.bin"
    }
  ],
  "extensionsRequired": [
    "KHR_materials_pbrSpecularGlossiness"
  ],
  "extensionsUsed": [
    "KHR_materials_pbrSpecularGlossiness"
  ],
  "images": [
    {
      "uri": "textures/Material0_diffuse.png"
    },
    {
      "uri": "textures/Material1_diffuse.png"
    },
    {
      "uri": "textures/Material2_diffuse.png"
    },
    {
      "uri": "textures/Material3_diffuse.png"
    },
    {
      "uri": "textures/Material4_diffuse.png"
    },
    {
      "uri": "textures/Material5_diffuse.png"
    },
    {
      "uri": "textures/Material6_diffuse.png"
    },
    {
      "uri": "textures/Material7_diffuse.png"
    }
  ],
  "materials": [
    {
      "doubleSided": true,
      "extensions": {
        "KHR_materials_pbrSpecularGlossiness": {
          "diffuseFactor": [
            1.0,
            1.0,
            1.0,
            1.0
          ],
          "diffuseTexture": {
            "index": 0
          },
          "glossinessFactor": 0.42294850537622564,
          "specularFactor": [
            1.0,
            1.0,
            1.0
          ],
          "specularGlossinessTexture": {
            "index": 0
          }
        }
      },
      "name": "Material0"
    },
    {
      "doubleSided": true,
      "extensions": {
        "KHR_materials_pbrSpecularGlossiness": {
          "diffuseFactor": [
            1.0,
            1.0,
            1.0,
            1.0
          ],
          "diffuseTexture": {
            "index": 1
          },
          "glossinessFactor": 0.42294850537622564,
          "specularFactor": [
            1.0,
            1.0,
            1.0
          ],
          "specularGlossinessTexture": {
            "index": 1
          }
        }
      },
      "name": "Material1"
    },
    {
      "doubleSided": true,
      "extensions": {
        "KHR_materials_pbrSpecularGlossiness": {
          "diffuseFactor": [
            1.0,
            1.0,
            1.0,
            1.0
          ],
          "diffuseTexture": {
            "index": 2
          },
          "glossinessFactor": 0.42294850537622564,
          "specularFactor": [
            1.0,
            1.0,
            1.0
          ],
          "specularGlossinessTexture": {
            "index": 2
          }
        }
      },
      "name": "Material2"
    },
    {
      "doubleSided": true,
      "extensions": {
        "KHR_materials_pbrSpecularGlossiness": {
          "diffuseFactor": [
            1.0,
            1.0,
            1.0,
            1.0
          ],
          "diffuseTexture": {
            "index": 3
          },
          "glossinessFactor": 0.42294850537622564,
          "specularFactor": [
            1.0,
            1.0,
            1.0
          ],
          "specularGlossinessTexture": {
            "index": 3
          }
        }
      },
      "name": "Material3"
    },
    {
      "doubleSided": true,
      "extensions": {
        "KHR_materials_pbrSpecularGlossiness": {
          "diffuseFactor": [
            1.0,
            1.0,
            1.0,
            1.0
          ],
          "diffuseTexture": {
            "index": 4
          },
          "glossinessFactor": 0.42294850537622564,
          "specularFactor": [
            1.0,
            1.0,
            1.0
          ],
          "specularGlossinessTexture": {
            "index": 4
          }
        }
      },
      "name": "Material4"
    },
    {
      "doubleSided": true,
      "extensions": {
        "KHR_materials_pbrSpecularGlossiness": {
          "diffuseFactor": [
            1.0,
            1.0,
            1.0,
            1.0
          ],
          "diffuseTexture": {
            "index": 5
          },
          "glossinessFactor": 0.42294850537622564,
          "specularFactor": [
            1.0,
            1.0,
            1.0
          ],
          "specularGlossinessTexture": {
            "index": 5
          }
        }
      },
      "name": "Material5"
    },
    {
      "doubleSided": true,
      "extensions": {
        "KHR_materials_pbrSpecularGlossiness": {
          "diffuseFactor": [
            1.0,
            1.0,
            1.0,
            1.0
          ],
          "diffuseTexture": {
            "index": 6
          },
          "glossinessFactor": 0.42294850537622564,
          "specularFactor": [
            1.0,
            1.0,
            1.0
          ],
          "specularGlossinessTexture": {
            "index": 6
          }
        }
      },
      "name": "Material6"
    },
    {
      "doubleSided": true,
      "extensions": {
        "KHR_materials_pbrSpecularGlossiness": {
          "diffuseFactor": [
            1.0,
            1.0,
            1.0,
            1.0
          ],
          "diffuseTexture": {
            "index": 7
          },
          "glossinessFactor": 0.42294850537622564,
          "specularFactor": [
            1.0,
            1.0,
            1.0
          ],
          "specularGlossinessTexture": {
            "index": 7
          }
        }
      },
      "name": "Material7"
    }
  ],
  "meshes": [
    {
      "name": "Object_0",
      "primitives": [
        {
          "attributes": {
            "NORMAL": 1,
            "POSITION": 0,
            "TEXCOORD_0": 2
          },
          "indices": 3,
          "material": 0,
          "mode": 4
        }
      ]
    },
    {
      "name": "Object_1",
      "primitives": [
        {
          "attributes": {
            "NORMAL": 5,
            "POSITION": 4,
            "TEXCOORD_0": 6
          },
          "indices": 7,
          "material": 1,
          "mode": 4
        }
      ]
    },
    {
      "name": "Object_2",
      "primitives": [
        {
          "attributes": {
            "NORMAL": 9,
            "POSITION": 8,
            "TEXCOORD_0": 10
          },
          "indices": 11,
          "material": 2,
          "mode": 4
        }
      ]
    },
    {
      "name": "Object_3",
      "primitives": [
        {
          "attributes": {
            "NORMAL": 13,
            "POSITION": 12,
            "TEXCOORD_0": 14
          },
          "indices": 15,
          "material": 3,
          "mode": 4
        }
      ]
    },
    {
      "name": "Object_4",
      "primitives": [
        {
          "attributes": {
            "NORMAL": 17,
            "POSITION": 16,
            "TEXCOORD_0": 18
          },
          "indices": 19,
          "material": 4,
          "mode": 4
        }
      ]
    },
    {
      "name": "Object_5",
      "primitives": [
        {
          "attributes": {
            "NORMAL": 21,
            "POSITION": 20,
            "TEXCOORD_0": 22
          },
          "indices": 23,
          "material": 5,
          "mode": 4
        }
      ]
    },
    {
      "name": "Object_6",
      "primitives": [
        {
          "attributes": {
            "NORMAL": 25,
            "POSITION": 24,
            "TEXCOORD_0": 26
          },
          "indices": 27,
          "material": 6,
          "mode": 4
        }
      ]
    },
    {
      "name": "Object_7",
      "primitives": [
        {
          "attributes": {
            "NORMAL": 29,
            "POSITION": 28,
            "TEXCOORD_0": 30
          },
          "indices": 31,
          "material": 7,
          "mode": 4
        }
      ]
    }
  ],
  "nodes": [
    {
      "children": [
        1
      ],
      "matrix": [
        1.0,
        0.0,
        0.0,
        0.0,
        0.0,
        -1.0,
        -4.440892098500626e-16,
        0.0,
        0.0,
        4.440892098500626e-16,
        -1.0,
        0.0,
        0.0,
        0.0,
        0.0,
        1.0
      ],
      "name": "Sketchfab_model"
    },
    {
      "children": [
        2,
        3,
        4,
        5,
        6,
        7,
        8,
        9
      ],
      "name": "re darkside chronicles leon kennedy.obj.cleaner.materialmerger.gles"
    },
    {
      "mesh": 0,
      "name": "Object_2"
    },
    {
      "mesh": 1,
      "name": "Object_3"
    },
    {
      "mesh": 2,
      "name": "Object_4"
    },
    {
      "mesh": 3,
      "name": "Object_5"
    },
    {
      "mesh": 4,
      "name": "Object_6"
    },
    {
      "mesh": 5,
      "name": "Object_7"
    },
    {
      "mesh": 6,
      "name": "Object_8"
    },
    {
      "mesh": 7,
      "name": "Object_9"
    }
  ],
  "samplers": [
    {
      "magFilter": 9729,
      "minFilter": 9987,
      "wrapS": 10497,
      "wrapT": 10497
    }
  ],
  "scene": 0,
  "scenes": [
    {
      "name": "Sketchfab_Scene",
      "nodes": [
        0
      ]
    }
  ],
  "textures": [
    {
      "sampler": 0,
      "source": 0
    },
    {
      "sampler": 0,
      "source": 1
    },
    {
      "sampler": 0,
      "source": 2
    },
    {
      "sampler": 0,
      "source": 3
    },
    {
      "sampler": 0,
      "source": 4
    },
    {
      "sampler": 0,
      "source": 5
    },
    {
      "sampler": 0,
      "source": 6
    },
    {
      "sampler": 0,
      "source": 7
    }
  ]
}
